<?xml version="1.0" encoding="UTF-8" standalone="no"?>
<svg width="57px" height="62px" viewBox="0 0 57 62" version="1.1" xmlns="http://www.w3.org/2000/svg" xmlns:xlink="http://www.w3.org/1999/xlink" xmlns:sketch="http://www.bohemiancoding.com/sketch/ns">
    <!-- Generator: Sketch 3.3.2 (12043) - http://www.bohemiancoding.com/sketch -->
    <title>ROSIV Logo</title>
    <desc>Created with Sketch.</desc>
    <defs></defs>
    <g id="Page-1" stroke="none" stroke-width="1" fill="none" fill-rule="evenodd" sketch:type="MSPage">
        <g id="ROSIV-Logo" sketch:type="MSLayerGroup" transform="translate(1.000000, 0.000000)">
            <path id="Path-1" stroke="#979797" sketch:type="MSShapeGroup" d=""></path>
            <path d="M13.93384,41.1376053 L22.2732703,41.306104 L25.3496298,44.3409676 L45.8140536,23.6175084 L55.765539,24.1299207 L26.3807415,53.3386747 L13.93384,41.1376053 Z" id="Path-3" stroke="#F05E18" fill="#F05E18" sketch:type="MSShapeGroup"></path>
            <path d="M27.6369374,0.773354304 L15.7942422,12.111182 L20.889443,18.0671096 L15.3679655,23.9394165 L10.5600928,20.1903195 L10.7141309,28.032427 L0.258406653,38.985474 L8.99079111,39.104932 L15.3528761,32.6227603 L32.0738614,49.4066182 L28.9704666,52.9658398 L29.0044179,60.9544406 L41.0935739,49.041328 L19.3899299,28.6907038 L25.4866922,22.1601201 L45.290953,41.4525973 L45.3619991,33.2181644 L29.6771554,18.0237274 L30.5529716,17.4484425 L34.8484321,21.582949 L42.4371627,21.4710356 L30.0481041,9.36238908 L25.7180637,13.7553022 L23.7218565,11.6679297 L27.8274416,8.15774882 L27.6369374,0.773354304 Z" id="Path-2" stroke="#000000" fill="#000000" sketch:type="MSShapeGroup"></path>
            <circle id="Oval-1" stroke="#F05E18" fill="#F05E18" sketch:type="MSShapeGroup" cx="27.5" cy="31.5" r="5.5"></circle>
        </g>
    </g>
</svg>